<mxfile host="app.diagrams.net" modified="2021-11-21T13:42:10.937Z" agent="5.0 (Windows NT 10.0; Win64; x64) AppleWebKit/537.36 (KHTML, like Gecko) Chrome/96.0.4664.45 Safari/537.36" etag="B4zlYjiF2jKaHjH9T1rB" version="15.8.3" type="github">
  <diagram name="Page-1" id="e7e014a7-5840-1c2e-5031-d8a46d1fe8dd">
    <mxGraphModel dx="1038" dy="547" grid="1" gridSize="10" guides="1" tooltips="1" connect="1" arrows="1" fold="1" page="1" pageScale="1" pageWidth="1169" pageHeight="826" background="none" math="0" shadow="0">
      <root>
        <mxCell id="0" />
        <mxCell id="1" parent="0" />
        <mxCell id="fy7SeCiwstfMl0fLdGai-41" value="LOGIN" style="ellipse;whiteSpace=wrap;html=1;" vertex="1" parent="1">
          <mxGeometry x="430" y="120" width="180" height="100" as="geometry" />
        </mxCell>
        <mxCell id="fy7SeCiwstfMl0fLdGai-43" value="USER" style="rounded=0;whiteSpace=wrap;html=1;" vertex="1" parent="1">
          <mxGeometry x="250" y="290" width="120" height="60" as="geometry" />
        </mxCell>
        <mxCell id="fy7SeCiwstfMl0fLdGai-44" value="ADMIN" style="rounded=0;whiteSpace=wrap;html=1;" vertex="1" parent="1">
          <mxGeometry x="690" y="280" width="120" height="60" as="geometry" />
        </mxCell>
        <mxCell id="fy7SeCiwstfMl0fLdGai-47" value="" style="endArrow=classic;html=1;rounded=0;exitX=0.5;exitY=1;exitDx=0;exitDy=0;" edge="1" parent="1" source="fy7SeCiwstfMl0fLdGai-41">
          <mxGeometry width="50" height="50" relative="1" as="geometry">
            <mxPoint x="500" y="400" as="sourcePoint" />
            <mxPoint x="520" y="320" as="targetPoint" />
          </mxGeometry>
        </mxCell>
        <mxCell id="fy7SeCiwstfMl0fLdGai-48" value="" style="endArrow=classic;html=1;rounded=0;entryX=1;entryY=0.5;entryDx=0;entryDy=0;" edge="1" parent="1" target="fy7SeCiwstfMl0fLdGai-43">
          <mxGeometry width="50" height="50" relative="1" as="geometry">
            <mxPoint x="520" y="320" as="sourcePoint" />
            <mxPoint x="550" y="350" as="targetPoint" />
          </mxGeometry>
        </mxCell>
        <mxCell id="fy7SeCiwstfMl0fLdGai-49" value="" style="endArrow=classic;html=1;rounded=0;entryX=0;entryY=0.637;entryDx=0;entryDy=0;entryPerimeter=0;" edge="1" parent="1" target="fy7SeCiwstfMl0fLdGai-44">
          <mxGeometry width="50" height="50" relative="1" as="geometry">
            <mxPoint x="520" y="320" as="sourcePoint" />
            <mxPoint x="690" y="310" as="targetPoint" />
          </mxGeometry>
        </mxCell>
        <mxCell id="fy7SeCiwstfMl0fLdGai-50" value="" style="endArrow=classic;html=1;rounded=0;" edge="1" parent="1">
          <mxGeometry width="50" height="50" relative="1" as="geometry">
            <mxPoint x="250" y="320" as="sourcePoint" />
            <mxPoint x="200" y="320" as="targetPoint" />
          </mxGeometry>
        </mxCell>
        <mxCell id="fy7SeCiwstfMl0fLdGai-51" value="" style="endArrow=classic;html=1;rounded=0;" edge="1" parent="1">
          <mxGeometry width="50" height="50" relative="1" as="geometry">
            <mxPoint x="200" y="320" as="sourcePoint" />
            <mxPoint x="200" y="700" as="targetPoint" />
          </mxGeometry>
        </mxCell>
        <mxCell id="fy7SeCiwstfMl0fLdGai-53" value="" style="endArrow=classic;html=1;rounded=0;" edge="1" parent="1">
          <mxGeometry width="50" height="50" relative="1" as="geometry">
            <mxPoint x="200" y="400" as="sourcePoint" />
            <mxPoint x="240" y="400" as="targetPoint" />
          </mxGeometry>
        </mxCell>
        <mxCell id="fy7SeCiwstfMl0fLdGai-54" value="SELECT ID" style="rounded=1;whiteSpace=wrap;html=1;" vertex="1" parent="1">
          <mxGeometry x="240" y="370" width="130" height="60" as="geometry" />
        </mxCell>
        <mxCell id="fy7SeCiwstfMl0fLdGai-55" value="SELECT CANDIDATE" style="rounded=1;whiteSpace=wrap;html=1;" vertex="1" parent="1">
          <mxGeometry x="245" y="480" width="120" height="60" as="geometry" />
        </mxCell>
        <mxCell id="fy7SeCiwstfMl0fLdGai-61" value="" style="endArrow=classic;html=1;rounded=0;entryX=0.028;entryY=0.65;entryDx=0;entryDy=0;entryPerimeter=0;" edge="1" parent="1" target="fy7SeCiwstfMl0fLdGai-55">
          <mxGeometry width="50" height="50" relative="1" as="geometry">
            <mxPoint x="200" y="519" as="sourcePoint" />
            <mxPoint x="550" y="350" as="targetPoint" />
          </mxGeometry>
        </mxCell>
        <mxCell id="fy7SeCiwstfMl0fLdGai-62" value="" style="endArrow=classic;html=1;rounded=0;" edge="1" parent="1">
          <mxGeometry width="50" height="50" relative="1" as="geometry">
            <mxPoint x="600" y="400" as="sourcePoint" />
            <mxPoint x="690" y="400" as="targetPoint" />
          </mxGeometry>
        </mxCell>
        <mxCell id="fy7SeCiwstfMl0fLdGai-63" value="" style="endArrow=classic;html=1;rounded=0;entryX=0.017;entryY=0.637;entryDx=0;entryDy=0;entryPerimeter=0;" edge="1" parent="1" target="fy7SeCiwstfMl0fLdGai-64">
          <mxGeometry width="50" height="50" relative="1" as="geometry">
            <mxPoint x="200" y="600" as="sourcePoint" />
            <mxPoint x="240" y="600" as="targetPoint" />
          </mxGeometry>
        </mxCell>
        <mxCell id="fy7SeCiwstfMl0fLdGai-64" value="&lt;span&gt;VOTE&lt;/span&gt;" style="rounded=1;whiteSpace=wrap;html=1;" vertex="1" parent="1">
          <mxGeometry x="240" y="560" width="120" height="60" as="geometry" />
        </mxCell>
        <mxCell id="fy7SeCiwstfMl0fLdGai-65" value="" style="endArrow=classic;html=1;rounded=0;" edge="1" parent="1">
          <mxGeometry width="50" height="50" relative="1" as="geometry">
            <mxPoint x="600" y="520" as="sourcePoint" />
            <mxPoint x="690" y="520" as="targetPoint" />
          </mxGeometry>
        </mxCell>
        <mxCell id="fy7SeCiwstfMl0fLdGai-66" value="" style="endArrow=classic;html=1;rounded=0;" edge="1" parent="1">
          <mxGeometry width="50" height="50" relative="1" as="geometry">
            <mxPoint x="600" y="320" as="sourcePoint" />
            <mxPoint x="600" y="620" as="targetPoint" />
          </mxGeometry>
        </mxCell>
        <mxCell id="fy7SeCiwstfMl0fLdGai-67" value="NEW ELECTION" style="rounded=1;whiteSpace=wrap;html=1;" vertex="1" parent="1">
          <mxGeometry x="690" y="370" width="120" height="60" as="geometry" />
        </mxCell>
        <mxCell id="fy7SeCiwstfMl0fLdGai-68" value="&lt;span&gt;RESULT&lt;/span&gt;" style="rounded=1;whiteSpace=wrap;html=1;" vertex="1" parent="1">
          <mxGeometry x="690" y="590" width="120" height="60" as="geometry" />
        </mxCell>
        <mxCell id="fy7SeCiwstfMl0fLdGai-69" value="VALIDATE" style="rounded=1;whiteSpace=wrap;html=1;" vertex="1" parent="1">
          <mxGeometry x="690" y="490" width="120" height="60" as="geometry" />
        </mxCell>
        <mxCell id="fy7SeCiwstfMl0fLdGai-70" value="" style="endArrow=classic;html=1;rounded=0;entryX=0;entryY=0.5;entryDx=0;entryDy=0;" edge="1" parent="1" target="fy7SeCiwstfMl0fLdGai-68">
          <mxGeometry width="50" height="50" relative="1" as="geometry">
            <mxPoint x="600" y="620" as="sourcePoint" />
            <mxPoint x="550" y="430" as="targetPoint" />
          </mxGeometry>
        </mxCell>
        <mxCell id="fy7SeCiwstfMl0fLdGai-71" value="" style="endArrow=classic;html=1;rounded=0;" edge="1" parent="1">
          <mxGeometry width="50" height="50" relative="1" as="geometry">
            <mxPoint x="200" y="700" as="sourcePoint" />
            <mxPoint x="240" y="700" as="targetPoint" />
          </mxGeometry>
        </mxCell>
        <mxCell id="fy7SeCiwstfMl0fLdGai-72" value="LOGOUT" style="rounded=1;whiteSpace=wrap;html=1;" vertex="1" parent="1">
          <mxGeometry x="240" y="670" width="120" height="60" as="geometry" />
        </mxCell>
        <mxCell id="fy7SeCiwstfMl0fLdGai-73" value="" style="endArrow=classic;html=1;rounded=0;" edge="1" parent="1">
          <mxGeometry width="50" height="50" relative="1" as="geometry">
            <mxPoint x="360" y="600" as="sourcePoint" />
            <mxPoint x="480" y="600" as="targetPoint" />
            <Array as="points" />
          </mxGeometry>
        </mxCell>
        <mxCell id="fy7SeCiwstfMl0fLdGai-74" value="" style="endArrow=classic;html=1;rounded=0;" edge="1" parent="1">
          <mxGeometry width="50" height="50" relative="1" as="geometry">
            <mxPoint x="480" y="600" as="sourcePoint" />
            <mxPoint x="480" y="800" as="targetPoint" />
          </mxGeometry>
        </mxCell>
        <mxCell id="fy7SeCiwstfMl0fLdGai-75" value="" style="endArrow=classic;html=1;rounded=0;exitX=1;exitY=0.5;exitDx=0;exitDy=0;" edge="1" parent="1" source="fy7SeCiwstfMl0fLdGai-69">
          <mxGeometry width="50" height="50" relative="1" as="geometry">
            <mxPoint x="500" y="640" as="sourcePoint" />
            <mxPoint x="860" y="520" as="targetPoint" />
          </mxGeometry>
        </mxCell>
        <mxCell id="fy7SeCiwstfMl0fLdGai-79" value="" style="endArrow=classic;html=1;rounded=0;exitX=1;exitY=0.63;exitDx=0;exitDy=0;exitPerimeter=0;" edge="1" parent="1" source="fy7SeCiwstfMl0fLdGai-68">
          <mxGeometry width="50" height="50" relative="1" as="geometry">
            <mxPoint x="500" y="640" as="sourcePoint" />
            <mxPoint x="860" y="628" as="targetPoint" />
          </mxGeometry>
        </mxCell>
        <mxCell id="fy7SeCiwstfMl0fLdGai-80" value="" style="endArrow=classic;html=1;rounded=0;" edge="1" parent="1">
          <mxGeometry width="50" height="50" relative="1" as="geometry">
            <mxPoint x="860" y="520" as="sourcePoint" />
            <mxPoint x="860" y="800" as="targetPoint" />
          </mxGeometry>
        </mxCell>
        <mxCell id="fy7SeCiwstfMl0fLdGai-81" value="" style="endArrow=classic;html=1;rounded=0;" edge="1" parent="1">
          <mxGeometry width="50" height="50" relative="1" as="geometry">
            <mxPoint x="480" y="800" as="sourcePoint" />
            <mxPoint x="580" y="800" as="targetPoint" />
          </mxGeometry>
        </mxCell>
        <mxCell id="fy7SeCiwstfMl0fLdGai-82" value="" style="endArrow=classic;html=1;rounded=0;entryX=1.011;entryY=0.212;entryDx=0;entryDy=0;entryPerimeter=0;" edge="1" parent="1" target="fy7SeCiwstfMl0fLdGai-83">
          <mxGeometry width="50" height="50" relative="1" as="geometry">
            <mxPoint x="860" y="800" as="sourcePoint" />
            <mxPoint x="740" y="800" as="targetPoint" />
          </mxGeometry>
        </mxCell>
        <mxCell id="fy7SeCiwstfMl0fLdGai-83" value="DATABASE" style="whiteSpace=wrap;html=1;aspect=fixed;" vertex="1" parent="1">
          <mxGeometry x="580" y="760" width="180" height="180" as="geometry" />
        </mxCell>
        <mxCell id="fy7SeCiwstfMl0fLdGai-84" value="" style="endArrow=classic;html=1;rounded=0;exitX=1.003;exitY=0.643;exitDx=0;exitDy=0;exitPerimeter=0;" edge="1" parent="1" source="fy7SeCiwstfMl0fLdGai-72">
          <mxGeometry width="50" height="50" relative="1" as="geometry">
            <mxPoint x="500" y="810" as="sourcePoint" />
            <mxPoint x="480" y="710" as="targetPoint" />
          </mxGeometry>
        </mxCell>
      </root>
    </mxGraphModel>
  </diagram>
</mxfile>
